<svg width="170" height="170" viewBox="0 0 170 170" fill="none" xmlns="http://www.w3.org/2000/svg">
<path d="M35.4167 148.75C31.5208 148.75 28.1846 147.362 25.4079 144.585C22.6313 141.808 21.2453 138.474 21.25 134.583V35.4167C21.25 31.5208 22.6383 28.1846 25.415 25.4079C28.1917 22.6313 31.5256 21.2453 35.4167 21.25H134.583C138.479 21.25 141.815 22.6383 144.592 25.415C147.369 28.1917 148.755 31.5256 148.75 35.4167V134.583C148.75 138.479 147.362 141.815 144.585 144.592C141.808 147.369 138.474 148.755 134.583 148.75H35.4167ZM42.5 120.417H127.5L100.938 85L79.6875 113.333L63.75 92.0834L42.5 120.417Z" fill="#D9D9D9"/>
</svg>
