<svg width="161" height="60" viewBox="0 0 161 60" fill="none" xmlns="http://www.w3.org/2000/svg">
<path d="M1 0H22.9999L44 30H22L1 0Z" fill="#40DD67"/>
<path d="M0 30H22L44 60H22L0 30Z" fill="#40DD67"/>
<path d="M67.679 23.9062C67.5464 22.6657 66.9877 21.6998 66.0028 21.0085C65.0275 20.3172 63.7585 19.9716 62.196 19.9716C61.0975 19.9716 60.1553 20.1373 59.3693 20.4688C58.5833 20.8002 57.982 21.25 57.5653 21.8182C57.1487 22.3864 56.9356 23.035 56.9261 23.7642C56.9261 24.3703 57.0634 24.8958 57.3381 25.3409C57.6222 25.786 58.0057 26.1648 58.4886 26.4773C58.9716 26.7803 59.5066 27.036 60.0938 27.2443C60.6809 27.4527 61.2727 27.6278 61.8693 27.7699L64.5966 28.4517C65.6951 28.7074 66.7509 29.053 67.7642 29.4886C68.7869 29.9242 69.7008 30.4735 70.5057 31.1364C71.3201 31.7992 71.964 32.5994 72.4375 33.5369C72.911 34.4744 73.1477 35.5729 73.1477 36.8324C73.1477 38.5369 72.7121 40.0379 71.8409 41.3352C70.9697 42.6231 69.7102 43.6316 68.0625 44.3608C66.4242 45.0805 64.4403 45.4403 62.1108 45.4403C59.8475 45.4403 57.8826 45.09 56.2159 44.3892C54.5587 43.6884 53.2614 42.6657 52.3239 41.321C51.3958 39.9763 50.8939 38.3381 50.8182 36.4062H56.0028C56.0786 37.4195 56.3911 38.2623 56.9403 38.9347C57.4896 39.607 58.2045 40.1089 59.0852 40.4403C59.9754 40.7718 60.9697 40.9375 62.0682 40.9375C63.214 40.9375 64.2178 40.767 65.0795 40.4261C65.9508 40.0758 66.6326 39.5928 67.125 38.9773C67.6174 38.3523 67.8684 37.6231 67.8778 36.7898C67.8684 36.0322 67.6458 35.4072 67.2102 34.9148C66.7746 34.4129 66.1638 33.9962 65.3778 33.6648C64.6013 33.3239 63.6922 33.0208 62.6506 32.7557L59.3409 31.9034C56.9451 31.2879 55.0511 30.3551 53.6591 29.1051C52.2765 27.8456 51.5852 26.1742 51.5852 24.0909C51.5852 22.3769 52.0492 20.8759 52.9773 19.5881C53.9148 18.3002 55.1884 17.3011 56.7983 16.5909C58.4081 15.8712 60.2311 15.5114 62.267 15.5114C64.3314 15.5114 66.1402 15.8712 67.6932 16.5909C69.2557 17.3011 70.482 18.2907 71.3722 19.5597C72.2623 20.8191 72.7216 22.268 72.75 23.9062H67.679ZM88.5135 23.1818V27.1591H75.9709V23.1818H88.5135ZM79.0675 17.9545H84.2095V38.4375C84.2095 39.1288 84.3137 39.6591 84.522 40.0284C84.7398 40.3883 85.0239 40.6345 85.3743 40.767C85.7247 40.8996 86.1129 40.9659 86.5391 40.9659C86.861 40.9659 87.1546 40.9422 87.4197 40.8949C87.6944 40.8475 87.9027 40.8049 88.0447 40.767L88.9112 44.7869C88.6366 44.8816 88.2436 44.9858 87.7322 45.0994C87.2304 45.2131 86.6148 45.2794 85.8857 45.2983C84.5978 45.3362 83.4377 45.142 82.4055 44.7159C81.3733 44.2803 80.5542 43.608 79.9482 42.6989C79.3516 41.7898 79.058 40.6534 79.0675 39.2898V17.9545ZM102.097 45.4261C99.9659 45.4261 98.1193 44.9574 96.5568 44.0199C94.9943 43.0824 93.7822 41.7708 92.9205 40.0852C92.0682 38.3996 91.642 36.4299 91.642 34.1761C91.642 31.9223 92.0682 29.9479 92.9205 28.2528C93.7822 26.5578 94.9943 25.2415 96.5568 24.304C98.1193 23.3665 99.9659 22.8977 102.097 22.8977C104.227 22.8977 106.074 23.3665 107.636 24.304C109.199 25.2415 110.406 26.5578 111.259 28.2528C112.12 29.9479 112.551 31.9223 112.551 34.1761C112.551 36.4299 112.12 38.3996 111.259 40.0852C110.406 41.7708 109.199 43.0824 107.636 44.0199C106.074 44.9574 104.227 45.4261 102.097 45.4261ZM102.125 41.3068C103.28 41.3068 104.246 40.9896 105.023 40.3551C105.799 39.7112 106.377 38.8494 106.756 37.7699C107.144 36.6903 107.338 35.4877 107.338 34.1619C107.338 32.8267 107.144 31.6193 106.756 30.5398C106.377 29.4508 105.799 28.5843 105.023 27.9403C104.246 27.2964 103.28 26.9744 102.125 26.9744C100.941 26.9744 99.9564 27.2964 99.1705 27.9403C98.3939 28.5843 97.8116 29.4508 97.4233 30.5398C97.0445 31.6193 96.8551 32.8267 96.8551 34.1619C96.8551 35.4877 97.0445 36.6903 97.4233 37.7699C97.8116 38.8494 98.3939 39.7112 99.1705 40.3551C99.9564 40.9896 100.941 41.3068 102.125 41.3068ZM126.433 45.4261C124.254 45.4261 122.384 44.9479 120.822 43.9915C119.269 43.035 118.071 41.714 117.228 40.0284C116.395 38.3333 115.978 36.3826 115.978 34.1761C115.978 31.9602 116.404 30.0047 117.256 28.3097C118.109 26.6051 119.311 25.2794 120.864 24.3324C122.427 23.3759 124.273 22.8977 126.404 22.8977C128.175 22.8977 129.742 23.2244 131.106 23.8778C132.479 24.5218 133.573 25.4356 134.387 26.6193C135.201 27.7936 135.665 29.1667 135.779 30.7386H130.864C130.665 29.6875 130.192 28.8116 129.444 28.1108C128.705 27.4006 127.716 27.0455 126.475 27.0455C125.424 27.0455 124.501 27.3295 123.705 27.8977C122.91 28.4564 122.29 29.2614 121.844 30.3125C121.409 31.3636 121.191 32.6231 121.191 34.0909C121.191 35.5777 121.409 36.8561 121.844 37.9261C122.28 38.9867 122.891 39.8059 123.677 40.3835C124.472 40.9517 125.405 41.2358 126.475 41.2358C127.233 41.2358 127.91 41.0937 128.506 40.8097C129.112 40.5161 129.619 40.0947 130.026 39.5455C130.433 38.9962 130.713 38.3286 130.864 37.5426H135.779C135.656 39.0862 135.201 40.4545 134.415 41.6477C133.629 42.8314 132.559 43.7595 131.205 44.4318C129.851 45.0947 128.26 45.4261 126.433 45.4261ZM144.689 38.1534L144.675 31.946H145.499L153.339 23.1818H159.348L149.703 33.9205H148.638L144.689 38.1534ZM140.001 45V15.9091H145.143V45H140.001ZM153.695 45L146.592 35.071L150.058 31.4489L159.845 45H153.695Z" fill="white"/>
</svg>
