<svg width="147" height="147" viewBox="0 0 147 147" fill="none" xmlns="http://www.w3.org/2000/svg">
<circle cx="73.5" cy="73.5" r="73.5" fill="#40DD67"/>
<path d="M119.457 108.695C113.405 98.0738 103.955 89.7977 92.628 85.1993C98.2607 80.9747 102.421 75.085 104.521 68.3643C106.62 61.6437 106.552 54.4329 104.325 47.7533C102.099 41.0737 97.8269 35.264 92.115 31.1471C86.4032 27.0302 79.5407 24.8149 72.4998 24.8149C65.4589 24.8149 58.5965 27.0302 52.8846 31.1471C47.1728 35.264 42.901 41.0737 40.6745 47.7533C38.4479 54.4329 38.3795 61.6437 40.4789 68.3643C42.5783 75.085 46.739 80.9747 52.3717 85.1993C41.0449 89.7977 31.5949 98.0738 25.543 108.695C25.168 109.298 24.9181 109.971 24.8081 110.672C24.6981 111.373 24.7302 112.09 24.9027 112.779C25.0751 113.468 25.3842 114.115 25.8117 114.682C26.2392 115.249 26.7764 115.724 27.3912 116.079C28.006 116.434 28.686 116.662 29.3907 116.749C30.0954 116.837 30.8104 116.781 31.4933 116.587C32.1761 116.392 32.8129 116.062 33.3657 115.616C33.9184 115.171 34.376 114.618 34.711 113.992C42.7093 100.167 56.8343 91.9219 72.4998 91.9219C88.1653 91.9219 102.29 100.172 110.289 113.992C111.015 115.16 112.167 115.999 113.5 116.333C114.834 116.667 116.246 116.469 117.436 115.781C118.627 115.093 119.504 113.969 119.881 112.647C120.258 111.325 120.106 109.908 119.457 108.695ZM49.5467 58.375C49.5467 53.8353 50.8929 49.3975 53.415 45.6229C55.9371 41.8483 59.5219 38.9063 63.7161 37.1691C67.9102 35.4318 72.5253 34.9773 76.9778 35.8629C81.4302 36.7486 85.5201 38.9346 88.7301 42.1447C91.9402 45.3547 94.1263 49.4446 95.0119 53.8971C95.8976 58.3495 95.443 62.9646 93.7058 67.1588C91.9685 71.3529 89.0265 74.9377 85.2519 77.4598C81.4773 79.9819 77.0395 81.3281 72.4998 81.3281C66.4144 81.3211 60.5803 78.9006 56.2773 74.5976C51.9742 70.2945 49.5537 64.4604 49.5467 58.375Z" fill="white"/>
</svg>
