<svg width="591" height="222" viewBox="0 0 591 222" fill="none" xmlns="http://www.w3.org/2000/svg">
<path d="M3.69636 0H85.0159L162.64 110.891H81.3199L3.69636 0Z" fill="#40DD67"/>
<path d="M0 110.891H81.3199L162.64 221.782H81.3199L0 110.891Z" fill="#40DD67"/>
<path d="M250.166 88.3661C249.676 83.7806 247.611 80.2103 243.97 77.655C240.365 75.0998 235.674 73.8222 229.899 73.8222C225.838 73.8222 222.356 74.4347 219.45 75.6599C216.545 76.885 214.322 78.5476 212.782 80.6478C211.242 82.748 210.454 85.1458 210.419 87.841C210.419 90.0813 210.927 92.0239 211.942 93.6691C212.992 95.3143 214.41 96.7144 216.195 97.8695C217.98 98.9896 219.958 99.9347 222.128 100.705C224.298 101.475 226.486 102.122 228.691 102.647L238.772 105.168C242.833 106.113 246.736 107.39 250.481 109.001C254.261 110.611 257.639 112.641 260.614 115.091C263.625 117.541 266.005 120.499 267.755 123.965C269.505 127.43 270.38 131.49 270.38 136.146C270.38 142.446 268.77 147.994 265.55 152.79C262.33 157.55 257.674 161.278 251.583 163.973C245.528 166.634 238.195 167.964 229.584 167.964C221.218 167.964 213.955 166.669 207.794 164.078C201.669 161.488 196.873 157.708 193.408 152.737C189.977 147.767 188.122 141.711 187.842 134.571H207.007C207.287 138.316 208.442 141.431 210.472 143.916C212.502 146.402 215.145 148.257 218.4 149.482C221.691 150.707 225.366 151.32 229.426 151.32C233.662 151.32 237.372 150.69 240.557 149.43C243.778 148.134 246.298 146.349 248.118 144.074C249.938 141.764 250.866 139.069 250.901 135.988C250.866 133.188 250.043 130.878 248.433 129.058C246.823 127.202 244.565 125.662 241.66 124.437C238.79 123.177 235.429 122.057 231.579 121.077L219.345 117.926C210.489 115.651 203.489 112.203 198.343 107.583C193.233 102.928 190.678 96.7494 190.678 89.0486C190.678 82.713 192.393 77.165 195.823 72.4045C199.288 67.6441 203.996 63.9512 209.947 61.326C215.898 58.6657 222.636 57.3356 230.161 57.3356C237.792 57.3356 244.478 58.6657 250.218 61.326C255.994 63.9512 260.527 67.6091 263.817 72.2995C267.107 76.955 268.805 82.3105 268.91 88.3661H250.166Z" fill="white"/>
<path d="M327.178 85.6883V100.39H280.816V85.6883H327.178ZM292.262 66.3664H311.269V142.079C311.269 144.634 311.654 146.594 312.424 147.959C313.229 149.29 314.279 150.2 315.574 150.69C316.869 151.18 318.304 151.425 319.88 151.425C321.07 151.425 322.155 151.337 323.135 151.162C324.15 150.987 324.92 150.83 325.445 150.69L328.648 165.549C327.633 165.899 326.18 166.284 324.29 166.704C322.435 167.124 320.16 167.369 317.464 167.439C312.704 167.579 308.416 166.861 304.601 165.286C300.785 163.676 297.757 161.191 295.517 157.83C293.312 154.47 292.227 150.27 292.262 145.229V66.3664Z" fill="white"/>
<path d="M377.386 167.911C369.51 167.911 362.684 166.179 356.909 162.713C351.133 159.248 346.653 154.4 343.467 148.169C340.317 141.939 338.742 134.658 338.742 126.327C338.742 117.996 340.317 110.698 343.467 104.433C346.653 98.167 351.133 93.3016 356.909 89.8362C362.684 86.3709 369.51 84.6382 377.386 84.6382C385.261 84.6382 392.087 86.3709 397.863 89.8362C403.638 93.3016 408.101 98.167 411.252 104.433C414.437 110.698 416.029 117.996 416.029 126.327C416.029 134.658 414.437 141.939 411.252 148.169C408.101 154.4 403.638 159.248 397.863 162.713C392.087 166.179 385.261 167.911 377.386 167.911ZM377.491 152.685C381.761 152.685 385.331 151.512 388.202 149.167C391.072 146.787 393.207 143.601 394.607 139.611C396.043 135.621 396.76 131.175 396.76 126.275C396.76 121.339 396.043 116.876 394.607 112.886C393.207 108.861 391.072 105.658 388.202 103.278C385.331 100.897 381.761 99.7072 377.491 99.7072C373.115 99.7072 369.475 100.897 366.57 103.278C363.699 105.658 361.547 108.861 360.112 112.886C358.711 116.876 358.011 121.339 358.011 126.275C358.011 131.175 358.711 135.621 360.112 139.611C361.547 143.601 363.699 146.787 366.57 149.167C369.475 151.512 373.115 152.685 377.491 152.685Z" fill="white"/>
<path d="M467.34 167.911C459.289 167.911 452.376 166.144 446.601 162.608C440.86 159.073 436.432 154.19 433.317 147.959C430.236 141.694 428.696 134.483 428.696 126.327C428.696 118.136 430.271 110.908 433.422 104.643C436.572 98.3421 441.018 93.4416 446.758 89.9412C452.534 86.4059 459.359 84.6382 467.235 84.6382C473.781 84.6382 479.574 85.8458 484.614 88.2611C489.69 90.6413 493.733 94.0191 496.743 98.3946C499.753 102.735 501.468 107.81 501.888 113.621H483.722C482.987 109.736 481.236 106.498 478.471 103.908C475.741 101.282 472.083 99.9697 467.498 99.9697C463.612 99.9697 460.199 101.02 457.259 103.12C454.319 105.185 452.026 108.161 450.381 112.046C448.771 115.931 447.966 120.587 447.966 126.012C447.966 131.508 448.771 136.233 450.381 140.189C451.991 144.109 454.249 147.137 457.154 149.272C460.094 151.372 463.542 152.422 467.498 152.422C470.298 152.422 472.801 151.897 475.006 150.847C477.246 149.762 479.119 148.204 480.624 146.174C482.129 144.144 483.162 141.676 483.722 138.771H501.888C501.433 144.477 499.753 149.535 496.848 153.945C493.943 158.32 489.987 161.751 484.982 164.236C479.976 166.686 474.096 167.911 467.34 167.911Z" fill="white"/>
<path d="M534.822 141.029L534.77 118.084H537.815L566.798 85.6883H589.008L553.357 125.382H549.419L534.822 141.029ZM517.496 166.336V58.8057H536.502V166.336H517.496ZM568.111 166.336L541.858 129.635L554.669 116.246L590.845 166.336H568.111Z" fill="white"/>
</svg>
