<svg width="181" height="181" viewBox="0 0 181 181" fill="none" xmlns="http://www.w3.org/2000/svg">
<path d="M90.5 181C73.8681 181 60.3333 167.465 60.3333 150.833L60.8663 120.134L30.3477 120.667C13.5348 120.667 0 107.132 0 90.5C0 73.8681 13.5348 60.3333 30.1667 60.3333L60.8663 59.7903L60.3333 30.3477C60.3333 13.5348 73.8681 0 90.5 0C107.132 0 120.667 13.5348 120.667 30.1667L121.22 59.7903L151.014 60.3333C167.465 60.3333 181 73.8681 181 90.5C181 107.132 167.465 120.667 150.833 120.667L121.22 120.134L120.667 151.014C120.667 167.465 107.132 181 90.5 181ZM80.4444 100.556V151.014C80.4444 156.374 84.9594 160.889 90.5 160.889C96.0406 160.889 100.556 156.374 100.556 150.833V100.556H151.014C156.374 100.556 160.889 96.0406 160.889 90.5C160.889 84.9594 156.374 80.4444 150.833 80.4444H100.556V30.1667C100.556 24.4451 96.0406 20.1111 90.5 20.1111C84.9594 20.1111 80.4444 24.6261 80.4444 30.1667V80.4444H30.1667C24.4451 80.4444 20.1111 84.9594 20.1111 90.5C20.1111 96.0406 24.6261 100.556 30.1667 100.556H80.4444Z" fill="#40DD67"/>
</svg>
