<svg width="50" height="50" viewBox="0 0 50 50" fill="none" xmlns="http://www.w3.org/2000/svg">
<circle cx="25" cy="25" r="25" fill="#40DD67"/>
<path d="M40.6316 36.9712C38.5732 33.3584 35.3589 30.5434 31.5062 28.9793C33.4221 27.5424 34.8373 25.5391 35.5514 23.2532C36.2655 20.9672 36.2422 18.5146 35.4849 16.2426C34.7276 13.9706 33.2746 11.9946 31.3318 10.5943C29.389 9.19395 27.0548 8.44043 24.6599 8.44043C22.2651 8.44043 19.9309 9.19395 17.9881 10.5943C16.0453 11.9946 14.5923 13.9706 13.835 16.2426C13.0777 18.5146 13.0544 20.9672 13.7685 23.2532C14.4825 25.5391 15.8977 27.5424 17.8136 28.9793C13.961 30.5434 10.7467 33.3584 8.68824 36.9712C8.56069 37.1763 8.47568 37.4049 8.43826 37.6435C8.40084 37.8821 8.41178 38.1258 8.47042 38.3601C8.52906 38.5944 8.63421 38.8145 8.77962 39.0074C8.92503 39.2002 9.10773 39.3619 9.31686 39.4827C9.52598 39.6035 9.75727 39.681 9.99696 39.7107C10.2367 39.7403 10.4799 39.7215 10.7121 39.6553C10.9444 39.5891 11.161 39.4768 11.349 39.3252C11.537 39.1736 11.6926 38.9858 11.8066 38.7728C14.5271 34.0705 19.3315 31.2659 24.6599 31.2659C29.9883 31.2659 34.7928 34.072 37.5133 38.7728C37.7603 39.17 38.152 39.4556 38.6057 39.5691C39.0594 39.6827 39.5395 39.6154 39.9445 39.3814C40.3495 39.1474 40.6476 38.7651 40.7758 38.3153C40.904 37.8656 40.8523 37.3835 40.6316 36.9712ZM16.8528 19.8554C16.8528 18.3113 17.3106 16.8019 18.1685 15.518C19.0264 14.2341 20.2457 13.2334 21.6723 12.6425C23.0988 12.0516 24.6686 11.897 26.183 12.1983C27.6975 12.4995 29.0886 13.2431 30.1805 14.3349C31.2723 15.4268 32.0159 16.8179 32.3171 18.3323C32.6184 19.8468 32.4637 21.4165 31.8728 22.8431C31.2819 24.2697 30.2813 25.489 28.9974 26.3469C27.7135 27.2047 26.2041 27.6626 24.6599 27.6626C22.5901 27.6602 20.6057 26.8369 19.1421 25.3733C17.6784 23.9097 16.8551 21.9253 16.8528 19.8554Z" fill="white"/>
</svg>
